<svg width="1417" height="617" viewBox="0 0 1417 617" fill="none" xmlns="http://www.w3.org/2000/svg">
<path fill-rule="evenodd" clip-rule="evenodd" d="M62.0632 0.11971C98.4491 -2.05565 129.709 25.6774 131.884 62.0632C136.823 144.663 154.965 262.427 191.005 350.187C209.217 394.534 229.244 424.307 248.338 439.967C263.752 452.608 278.269 456.594 300.007 449.682C414.3 413.338 462.896 319.858 488.977 267.954C489.222 267.465 489.471 266.97 489.723 266.467C497.852 250.277 509.636 226.807 526.273 206.062C567.904 154.149 648.185 107.809 739.944 115.034C837.337 122.702 929.139 188.497 994.839 325.729C1040.36 420.802 1080.58 461.639 1107.95 476.606C1129.22 488.241 1146.45 486.626 1167.27 473.418C1191.87 457.804 1218.18 426.636 1240.9 384.511C1263.15 343.269 1278.54 297.816 1284.99 260.942C1291.26 225.035 1325.46 201.016 1361.37 207.292C1397.27 213.569 1421.29 247.765 1415.02 283.671C1405.99 335.296 1385.67 394.168 1357.08 447.173C1328.97 499.295 1289.33 552.297 1237.99 584.874C1182.86 619.856 1114.15 630.451 1044.6 592.415C981.155 557.711 925.697 486.994 875.78 382.729C823.877 274.316 766.677 249.547 729.583 246.627C686.854 243.262 647.163 266.307 629.25 288.644C622.25 297.372 616.109 308.94 606.924 327.22L606.231 328.599C578.979 382.855 509.262 521.654 340.008 575.475C272.519 596.936 211.962 580.849 164.631 542.031C120.981 506.232 90.5942 453.158 68.9001 400.331C25.1284 293.742 5.49465 159.844 0.11971 69.9409C-2.05565 33.5551 25.6774 2.29507 62.0632 0.11971Z" fill="#00142B"/>
<circle cx="21" cy="21" r="21" transform="matrix(-1 0 0 1 406 464)" fill="#D6EBFF"/>
<circle cx="21" cy="21" r="21" transform="matrix(-1 0 0 1 277 491)" fill="#D6EBFF"/>
<circle cx="21" cy="21" r="21" transform="matrix(-1 0 0 1 796 168)" fill="#D6EBFF"/>
<circle cx="21" cy="21" r="21" transform="matrix(-1 0 0 1 974 363)" fill="#D6EBFF"/>
<circle cx="21" cy="21" r="21" transform="matrix(-1 0 0 1 664 173)" fill="#D6EBFF"/>
<circle cx="21" cy="21" r="21" transform="matrix(-1 0 0 1 1035 457)" fill="#D6EBFF"/>
<circle cx="21" cy="21" r="21" transform="matrix(-1 0 0 1 1252 478)" fill="#D6EBFF"/>
<circle cx="21" cy="21" r="21" transform="matrix(-1 0 0 1 580 268)" fill="#D6EBFF"/>
<circle cx="21" cy="21" r="21" transform="matrix(-1 0 0 1 1329 371)" fill="#D6EBFF"/>
<circle cx="87.9711" cy="241.971" r="52.9711" fill="#002952"/>
<path fill-rule="evenodd" clip-rule="evenodd" d="M87.9982 224.541C90.5358 222.19 93.8662 220.881 97.3257 220.875C101.065 220.875 104.636 222.413 107.249 225.122C109.849 227.832 111.298 231.445 111.29 235.201C111.298 238.957 109.849 242.57 107.249 245.28C105.524 247.068 103.802 248.899 102.071 250.736C98.552 254.471 94.9965 258.248 91.3023 261.803L91.2958 261.812C90.3786 262.681 89.1556 263.152 87.8927 263.124C86.6297 263.096 85.4288 262.571 84.551 261.663L68.7452 245.28C63.361 239.697 63.361 230.705 68.7452 225.124C71.2338 222.516 74.6491 220.993 78.2521 220.884C81.8552 220.775 85.3563 222.089 87.9982 224.541Z" fill="#D6EBFF"/>
<circle cx="154.971" cy="415.971" r="52.9711" fill="#002952"/>
<g clip-path="url(#clip0_3915_38713)">
<path d="M180 430.583C180 434.029 177.196 436.833 173.75 436.833V438.917C173.75 440.069 172.817 441 171.667 441C170.517 441 169.583 440.069 169.583 438.917V436.833H169.025C166.802 436.833 164.727 435.637 163.612 433.71C163.037 432.712 163.377 431.44 164.373 430.865C165.367 430.285 166.644 430.629 167.219 431.623C167.592 432.269 168.283 432.667 169.025 432.667H173.75C174.898 432.667 175.833 431.733 175.833 430.583C175.833 429.794 175.269 429.129 174.492 428.998L168.156 427.944C165.36 427.477 163.333 425.081 163.333 422.25C163.333 418.804 166.137 416 169.583 416V413.917C169.583 412.765 170.517 411.833 171.667 411.833C172.817 411.833 173.75 412.765 173.75 413.917V416H174.308C176.531 416 178.606 417.196 179.721 419.123C180.296 420.121 179.956 421.394 178.96 421.969C177.967 422.548 176.692 422.206 176.115 421.21C175.742 420.565 175.05 420.167 174.308 420.167H169.583C168.435 420.167 167.5 421.1 167.5 422.25C167.5 423.04 168.065 423.704 168.842 423.835L175.177 424.89C177.973 425.356 180 427.752 180 430.583ZM160.006 435.798C159.171 434.35 158.948 432.665 159.377 431.054C159.679 429.929 160.271 428.933 161.094 428.15C159.875 426.492 159.167 424.448 159.167 422.25C159.167 417.221 162.752 413.012 167.5 412.044V405.583C167.5 399.84 162.827 395.167 157.083 395.167H156.727C155.867 392.742 153.55 391 150.833 391H146.667C143.95 391 141.633 392.742 140.773 395.167H140.417C134.673 395.167 130 399.84 130 405.583V430.583C130 436.327 134.673 441 140.417 441H157.083C159.308 441 161.362 440.285 163.056 439.092C161.831 438.235 160.777 437.129 160.006 435.798ZM150.265 420.598L145.725 425.137C144.873 425.99 143.754 426.415 142.635 426.415C141.517 426.415 140.398 425.99 139.546 425.137L136.862 422.452C136.048 421.637 136.048 420.319 136.862 419.506C137.677 418.692 138.994 418.692 139.808 419.506L142.492 422.192C142.56 422.26 142.71 422.26 142.781 422.192L147.321 417.652C148.135 416.837 149.452 416.837 150.267 417.652C151.081 418.467 151.079 419.783 150.265 420.598ZM150.265 408.098L145.725 412.637C144.873 413.49 143.754 413.915 142.635 413.915C141.517 413.915 140.398 413.49 139.546 412.637L136.862 409.952C136.048 409.137 136.048 407.819 136.862 407.006C137.677 406.192 138.994 406.192 139.808 407.006L142.492 409.692C142.56 409.76 142.71 409.76 142.781 409.692L147.321 405.152C148.135 404.337 149.452 404.337 150.267 405.152C151.081 405.967 151.079 407.283 150.265 408.098Z" fill="#D6EBFF"/>
</g>
<circle cx="317.971" cy="220.971" r="52.9711" fill="#CEFF1A"/>
<g clip-path="url(#clip1_3915_38713)">
<path d="M316.251 197.668C306.407 197.677 301.316 197.855 298.084 201.084C294.855 204.318 294.677 209.407 294.668 219.251H306.134C305.296 218.204 304.693 216.988 304.368 215.686C303.115 210.665 307.665 206.115 312.686 207.368C314.021 207.701 315.229 208.315 316.251 209.134V197.668ZM294.668 222.751C294.677 232.593 294.855 237.685 298.084 240.916C301.318 244.148 306.407 244.323 316.251 244.335V225.955C315.331 227.797 313.916 229.346 312.164 230.429C310.412 231.512 308.394 232.085 306.335 232.085C305.871 232.085 305.425 231.9 305.097 231.572C304.769 231.244 304.585 230.799 304.585 230.335C304.585 229.871 304.769 229.425 305.097 229.097C305.425 228.769 305.871 228.585 306.335 228.585C308.042 228.585 309.699 228.009 311.039 226.951C312.378 225.892 313.321 224.412 313.715 222.751H294.668ZM319.751 244.335C329.593 244.323 334.685 244.148 337.916 240.916C341.148 237.687 341.323 232.593 341.335 222.751H322.288C322.682 224.412 323.625 225.892 324.964 226.951C326.303 228.009 327.961 228.585 329.668 228.585C330.132 228.585 330.577 228.769 330.905 229.097C331.234 229.425 331.418 229.871 331.418 230.335C331.418 230.799 331.234 231.244 330.905 231.572C330.577 231.9 330.132 232.085 329.668 232.085C327.609 232.085 325.59 231.512 323.839 230.429C322.087 229.346 320.672 227.797 319.751 225.955V244.335ZM341.335 219.251C341.323 209.407 341.148 204.316 337.916 201.084C334.687 197.855 329.593 197.677 319.751 197.668V209.134C320.798 208.296 322.014 207.694 323.314 207.368C328.338 206.112 332.89 210.662 331.633 215.686C331.308 216.987 330.706 218.203 329.869 219.251H341.335Z" fill="#0D3512"/>
<path d="M311.835 210.764C313.095 211.08 314.214 211.807 315.013 212.831C315.813 213.855 316.248 215.116 316.25 216.415V219.25H313.415C312.116 219.249 310.854 218.814 309.831 218.014C308.807 217.214 308.079 216.096 307.763 214.836C307.624 214.273 307.631 213.684 307.787 213.126C307.942 212.567 308.238 212.059 308.648 211.649C309.058 211.239 309.567 210.942 310.125 210.787C310.684 210.632 311.273 210.624 311.835 210.764ZM319.75 216.415V219.25H322.585C325.256 219.25 327.587 217.43 328.236 214.836C328.376 214.273 328.368 213.684 328.213 213.125C328.058 212.566 327.761 212.057 327.351 211.648C326.941 211.238 326.431 210.941 325.873 210.786C325.314 210.631 324.725 210.624 324.162 210.764C322.902 211.08 321.784 211.808 320.985 212.832C320.186 213.855 319.751 215.117 319.75 216.415Z" fill="#0D3512"/>
</g>
<circle cx="1117.97" cy="303.971" r="52.9711" fill="#FF0084"/>
<g clip-path="url(#clip2_3915_38713)">
<path d="M1116.25 280.668C1106.41 280.677 1101.31 280.855 1098.08 284.084C1094.85 287.318 1094.68 292.407 1094.67 302.251H1106.13C1105.29 301.204 1104.69 299.988 1104.37 298.686C1103.11 293.665 1107.66 289.115 1112.68 290.368C1114.02 290.701 1115.23 291.315 1116.25 292.134V280.668ZM1094.67 305.751C1094.68 315.593 1094.85 320.685 1098.08 323.916C1101.32 327.148 1106.41 327.323 1116.25 327.335V308.955C1115.33 310.797 1113.91 312.346 1112.16 313.429C1110.41 314.512 1108.39 315.085 1106.33 315.085C1105.87 315.085 1105.42 314.9 1105.1 314.572C1104.77 314.244 1104.58 313.799 1104.58 313.335C1104.58 312.871 1104.77 312.425 1105.1 312.097C1105.42 311.769 1105.87 311.585 1106.33 311.585C1108.04 311.585 1109.7 311.009 1111.04 309.951C1112.38 308.892 1113.32 307.412 1113.71 305.751H1094.67ZM1119.75 327.335C1129.59 327.323 1134.68 327.148 1137.91 323.916C1141.15 320.687 1141.32 315.593 1141.33 305.751H1122.29C1122.68 307.412 1123.62 308.892 1124.96 309.951C1126.3 311.009 1127.96 311.585 1129.67 311.585C1130.13 311.585 1130.58 311.769 1130.9 312.097C1131.23 312.425 1131.42 312.871 1131.42 313.335C1131.42 313.799 1131.23 314.244 1130.9 314.572C1130.58 314.9 1130.13 315.085 1129.67 315.085C1127.61 315.085 1125.59 314.512 1123.84 313.429C1122.09 312.346 1120.67 310.797 1119.75 308.955V327.335ZM1141.33 302.251C1141.32 292.407 1141.15 287.316 1137.91 284.084C1134.69 280.855 1129.59 280.677 1119.75 280.668V292.134C1120.8 291.296 1122.01 290.694 1123.31 290.368C1128.34 289.112 1132.89 293.662 1131.63 298.686C1131.31 299.987 1130.7 301.203 1129.87 302.251H1141.33Z" fill="#FAF0CA"/>
<path d="M1111.84 293.764C1113.1 294.08 1114.21 294.807 1115.01 295.831C1115.81 296.855 1116.25 298.116 1116.25 299.415V302.25H1113.41C1112.12 302.249 1110.85 301.814 1109.83 301.014C1108.81 300.214 1108.08 299.096 1107.76 297.836C1107.62 297.273 1107.63 296.684 1107.79 296.126C1107.94 295.567 1108.24 295.059 1108.65 294.649C1109.06 294.239 1109.57 293.942 1110.13 293.787C1110.68 293.632 1111.27 293.624 1111.84 293.764ZM1119.75 299.415V302.25H1122.58C1125.26 302.25 1127.59 300.43 1128.24 297.836C1128.38 297.273 1128.37 296.684 1128.21 296.125C1128.06 295.566 1127.76 295.057 1127.35 294.648C1126.94 294.238 1126.43 293.941 1125.87 293.786C1125.31 293.631 1124.72 293.624 1124.16 293.764C1122.9 294.08 1121.78 294.808 1120.99 295.832C1120.19 296.855 1119.75 298.117 1119.75 299.415Z" fill="#FAF0CA"/>
</g>
<circle cx="716.971" cy="490.971" r="52.9711" fill="#FF8800"/>
<path d="M725.521 494.217V489.539H731.35C732.091 489.539 732.769 489.386 733.382 489.079C733.996 488.772 734.482 488.325 734.839 487.737C735.197 487.149 735.376 486.433 735.376 485.589C735.376 484.771 735.197 484.068 734.839 483.48C734.482 482.892 733.996 482.445 733.382 482.138C732.769 481.832 732.091 481.678 731.35 481.678H725.521V477H732.232C733.945 477 735.491 477.345 736.872 478.035C738.252 478.726 739.339 479.723 740.131 481.026C740.949 482.304 741.358 483.826 741.358 485.589C741.358 487.353 740.949 488.887 740.131 490.191C739.339 491.469 738.252 492.466 736.872 493.182C735.491 493.872 733.945 494.217 732.232 494.217H725.521ZM720.92 504.072V477H726.94V504.072H720.92Z" fill="#351D09"/>
<path d="M711.211 504.072L703.657 491.993H702.929L692.498 477H699.669L707.108 488.35H707.837L718.267 504.072H711.211ZM692 504.072L702.008 489.577L706.648 492.185L698.864 504.072H692ZM708.067 491.303L703.427 488.695L710.943 477H717.807L708.067 491.303Z" fill="#351D09"/>
<circle cx="888.971" cy="277.971" r="52.9711" fill="#002952"/>
<path d="M872.125 257.75C872.125 255.96 872.836 254.243 874.102 252.977C875.368 251.711 877.085 251 878.875 251H899.125C900.915 251 902.632 251.711 903.898 252.977C905.164 254.243 905.875 255.96 905.875 257.75V298.25C905.875 300.04 905.164 301.757 903.898 303.023C902.632 304.289 900.915 305 899.125 305H878.875C877.085 305 875.368 304.289 874.102 303.023C872.836 301.757 872.125 300.04 872.125 298.25V257.75ZM892.375 294.875C892.375 293.98 892.019 293.121 891.386 292.489C890.754 291.856 889.895 291.5 889 291.5C888.105 291.5 887.246 291.856 886.614 292.489C885.981 293.121 885.625 293.98 885.625 294.875C885.625 295.77 885.981 296.629 886.614 297.261C887.246 297.894 888.105 298.25 889 298.25C889.895 298.25 890.754 297.894 891.386 297.261C892.019 296.629 892.375 295.77 892.375 294.875Z" fill="#D6EBFF"/>
<circle cx="477.971" cy="404.971" r="52.9711" fill="#002952"/>
<path d="M476.312 391.5C476.312 389.561 477.083 387.701 478.454 386.329C479.826 384.958 481.686 384.188 483.625 384.188C485.564 384.188 487.424 384.958 488.796 386.329C490.167 387.701 490.938 389.561 490.938 391.5C490.938 392.445 491.68 393.188 492.625 393.188C493.57 393.188 494.312 392.445 494.312 391.5V389.812H497.688V391.5C497.688 392.843 497.154 394.13 496.205 395.08C495.255 396.029 493.968 396.562 492.625 396.562C491.282 396.562 489.995 396.029 489.045 395.08C488.096 394.13 487.562 392.843 487.562 391.5C487.562 390.456 487.148 389.454 486.409 388.716C485.671 387.977 484.669 387.562 483.625 387.562C482.581 387.562 481.579 387.977 480.841 388.716C480.102 389.454 479.688 390.456 479.688 391.5H482.5V394.403C489.003 396.337 493.75 402.368 493.75 409.5C493.75 413.677 492.091 417.683 489.137 420.637C486.183 423.591 482.177 425.25 478 425.25C473.823 425.25 469.817 423.591 466.863 420.637C463.909 417.683 462.25 413.677 462.25 409.5C462.25 402.368 466.997 396.337 473.5 394.403V391.5H476.312ZM500.5 391.5H505V393.75H500.5V391.5ZM493.75 387V382.5H496V387H493.75ZM498.048 387.855L501.243 384.66L502.84 386.258L499.645 389.453L498.048 387.855Z" fill="#D6EBFF"/>
<circle cx="1117.97" cy="546.971" r="52.9711" fill="#002952"/>
<path d="M1136.8 525.25H1116.12C1114.5 525.25 1113.17 526.579 1113.17 528.198V537.333H1127.67V551.833H1136.8C1138.42 551.833 1139.75 550.504 1139.75 548.885V528.198C1139.75 526.579 1138.42 525.25 1136.8 525.25ZM1119.06 534.119C1118.27 534.119 1117.52 533.806 1116.96 533.249C1116.4 532.691 1116.09 531.935 1116.09 531.147C1116.09 530.358 1116.4 529.602 1116.96 529.045C1117.52 528.487 1118.27 528.174 1119.06 528.174C1119.85 528.174 1120.61 528.487 1121.17 529.045C1121.72 529.602 1122.04 530.358 1122.04 531.147C1122.04 532.79 1120.71 534.119 1119.06 534.119ZM1133.85 548.885C1133.46 548.888 1133.08 548.814 1132.71 548.668C1132.35 548.522 1132.02 548.305 1131.74 548.031C1131.47 547.758 1131.24 547.432 1131.09 547.072C1130.94 546.713 1130.86 546.327 1130.86 545.937C1130.85 545.546 1130.93 545.159 1131.07 544.797C1131.22 544.435 1131.44 544.106 1131.71 543.828C1131.98 543.549 1132.31 543.328 1132.67 543.176C1133.03 543.023 1133.41 542.943 1133.81 542.94C1135.45 542.916 1136.78 544.245 1136.8 545.937C1136.78 547.556 1135.47 548.861 1133.85 548.885ZM1133.85 534.119C1133.06 534.126 1132.31 533.819 1131.74 533.266C1131.18 532.713 1130.86 531.959 1130.86 531.171C1130.85 530.382 1131.16 529.624 1131.71 529.062C1132.26 528.5 1133.02 528.181 1133.81 528.174C1134.57 528.198 1135.3 528.519 1135.84 529.069C1136.38 529.618 1136.68 530.355 1136.69 531.123C1136.69 531.892 1136.4 532.633 1135.87 533.192C1135.34 533.75 1134.62 534.083 1133.85 534.119ZM1099.2 542.167H1119.89C1120.67 542.167 1121.42 542.477 1121.97 543.03C1122.52 543.583 1122.83 544.333 1122.83 545.115V565.802C1122.83 567.421 1121.5 568.75 1119.89 568.75H1099.2C1097.58 568.75 1096.25 567.421 1096.25 565.802V545.115C1096.25 543.496 1097.58 542.167 1099.2 542.167ZM1109.54 552.51C1107.92 552.51 1106.59 553.839 1106.59 555.458C1106.59 557.078 1107.92 558.407 1109.54 558.407C1111.16 558.407 1112.49 557.078 1112.49 555.458C1112.49 554.676 1112.18 553.926 1111.63 553.374C1111.07 552.821 1110.32 552.51 1109.54 552.51ZM1102.15 545.115C1100.53 545.115 1099.2 546.444 1099.2 548.063C1099.2 548.845 1099.51 549.595 1100.06 550.148C1100.61 550.701 1101.36 551.012 1102.15 551.012C1103.77 551.012 1105.1 549.682 1105.1 548.063C1105.1 546.444 1103.77 545.115 1102.15 545.115ZM1116.91 559.881C1115.29 559.881 1113.96 561.21 1113.96 562.829C1113.96 564.448 1115.29 565.778 1116.91 565.778C1117.69 565.778 1118.44 565.467 1119 564.914C1119.55 564.361 1119.86 563.611 1119.86 562.829C1119.86 561.21 1118.56 559.905 1116.94 559.881H1116.91Z" fill="#D6EBFF"/>
<circle cx="1350.97" cy="269.971" r="52.9711" fill="#002952"/>
<path d="M1309.53 270.044C1309.35 270.032 1309.17 270.017 1309 270C1309.18 270.014 1309.35 270.028 1309.53 270.044C1321.01 270.822 1351 261.727 1351 228C1351 261.727 1380.99 270.822 1392.47 270.044C1392.65 270.028 1392.82 270.014 1393 270C1392.83 270.017 1392.65 270.032 1392.47 270.044C1378.39 271.311 1351.83 280.816 1351 309.223C1351.03 310.13 1351.03 311.055 1351 312C1350.97 311.055 1350.97 310.13 1351 309.223C1350.17 280.816 1323.61 271.311 1309.53 270.044Z" fill="#D6EBFF"/>
<circle cx="64.9711" cy="62.9711" r="52.9711" fill="#D6EBFF"/>
<path d="M76.918 46.7461C72.693 46.7461 68.143 47.6128 65.0013 49.9961C61.8596 47.6128 57.3096 46.7461 53.0846 46.7461C49.943 46.7461 46.6063 47.2228 43.8113 48.4578C42.2296 49.1728 41.168 50.7111 41.168 52.4661V76.9061C41.168 79.7228 43.8113 81.8028 46.5413 81.1094C48.6646 80.5678 50.918 80.3294 53.0846 80.3294C56.4646 80.3294 60.0613 80.8928 62.9646 82.3228C64.2646 82.9728 65.738 82.9728 67.0163 82.3228C69.9196 80.8711 73.5163 80.3294 76.8963 80.3294C79.063 80.3294 81.3163 80.5678 83.4396 81.1094C86.1696 81.8244 88.813 79.7444 88.813 76.9061V52.4661C88.813 50.7111 87.7513 49.1728 86.1696 48.4578C83.3963 47.2228 80.0596 46.7461 76.918 46.7461ZM84.5013 74.3278C84.5013 75.6928 83.2446 76.6894 81.9013 76.4511C80.2763 76.1478 78.5863 76.0178 76.918 76.0178C73.2346 76.0178 67.9263 77.4261 65.0013 79.2678V54.3294C67.9263 52.4878 73.2346 51.0794 76.918 51.0794C78.9113 51.0794 80.883 51.2744 82.768 51.6861C83.7646 51.9028 84.5013 52.7911 84.5013 53.8094V74.3278Z" fill="#002952"/>
<path d="M69.2914 60.8492C68.598 60.8492 67.9697 60.4158 67.753 59.7225C67.4714 58.8775 67.948 57.9458 68.793 57.6858C72.1297 56.6025 76.4414 56.2558 80.4064 56.7108C81.2947 56.8192 81.9447 57.6208 81.8364 58.5092C81.728 59.3975 80.9264 60.0475 80.038 59.9392C76.528 59.5275 72.693 59.8525 69.7897 60.7842C69.6164 60.8058 69.443 60.8492 69.2914 60.8492ZM69.2914 66.6125C68.598 66.6125 67.9697 66.1792 67.753 65.4858C67.4714 64.6408 67.948 63.7092 68.793 63.4492C72.108 62.3658 76.4414 62.0192 80.4064 62.4742C81.2947 62.5825 81.9447 63.3842 81.8364 64.2725C81.728 65.1608 80.9264 65.8108 80.038 65.7025C76.528 65.2908 72.693 65.6158 69.7897 66.5475C69.6267 66.5884 69.4594 66.6102 69.2914 66.6125ZM69.2914 72.3758C68.598 72.3758 67.9697 71.9425 67.753 71.2492C67.4714 70.4042 67.948 69.4725 68.793 69.2125C72.108 68.1292 76.4414 67.7825 80.4064 68.2375C81.2947 68.3458 81.9447 69.1475 81.8364 70.0358C81.728 70.9242 80.9264 71.5525 80.038 71.4658C76.528 71.0542 72.693 71.3791 69.7897 72.3108C69.6267 72.3517 69.4594 72.3736 69.2914 72.3758Z" fill="#002952"/>
<defs>
<clipPath id="clip0_3915_38713">
<rect width="50" height="50" fill="white" transform="translate(130 391)"/>
</clipPath>
<clipPath id="clip1_3915_38713">
<rect width="50" height="50" fill="white" transform="translate(293 196)"/>
</clipPath>
<clipPath id="clip2_3915_38713">
<rect width="50" height="50" fill="white" transform="translate(1093 279)"/>
</clipPath>
</defs>
</svg>
