<svg width="1464" height="535" viewBox="0 0 1464 535" fill="none" xmlns="http://www.w3.org/2000/svg">
<path fill-rule="evenodd" clip-rule="evenodd" d="M538.209 160.496C524.436 178.463 517.51 200.312 516.487 215.243C516.348 217.274 516.114 219.298 515.784 221.307C514.595 228.568 514.361 238.141 513.949 255.017C513.86 258.64 513.764 262.599 513.647 266.945C513.07 288.535 511.906 316.248 506.318 344.967C494.581 405.279 462.451 472.327 379.412 511.569C328.284 535.731 277.51 540.486 230.138 528.955C183.902 517.701 145.371 492.071 114.855 462.582C55.0103 404.748 16.6274 323.187 2.31956 261.484C-5.78961 226.514 15.9859 191.591 50.9565 183.482C85.9271 175.372 120.85 197.148 128.959 232.119C138.652 273.916 166.449 331.657 205.195 369.1C223.975 387.249 242.841 398.251 260.884 402.643C277.79 406.758 298.175 406.175 323.867 394.033C359.328 377.275 372.448 352.323 378.711 320.135C382.123 302.604 383.146 283.942 383.694 263.469C383.765 260.798 383.826 257.939 383.891 254.939C384.225 239.308 384.641 219.871 387.018 203.392C390.31 164.249 406.077 119.181 435.038 81.4035C465.669 41.4466 513.079 7.40897 577.371 1.0541C640.506 -5.18645 710.018 16.243 784.513 66.387C858.976 116.509 942.575 197.975 1036.64 320.146V320.146C1039.57 323.951 1045.56 322.372 1046.28 317.625C1046.69 314.99 1047.1 312.295 1047.52 309.539L1047.59 309.057C1049.77 294.701 1052.17 278.909 1054.98 262.815C1060.61 230.541 1068.33 194.267 1081.04 160.123C1093.67 126.177 1112.72 90.2142 1143.52 62.1884C1212.66 -0.734352 1309.69 0.646851 1425.9 55.5245C1458.36 70.8541 1472.24 109.596 1456.91 142.057C1441.59 174.518 1402.84 188.405 1370.38 173.076C1274.84 127.954 1243.1 147.336 1231.01 158.335C1221.19 167.27 1211.51 182.249 1202.87 205.465C1194.31 228.483 1188.21 255.591 1183.05 285.162C1180.49 299.809 1178.27 314.38 1176.04 329.078L1175.99 329.397C1173.82 343.687 1171.58 358.391 1169.12 372.066C1164.83 395.934 1157.96 430.064 1141.19 455.262C1131.52 469.783 1114.55 487.503 1087.6 494.026C1061.01 500.461 1037.48 492.886 1021.06 484.181C991.219 468.364 962.491 436.93 933.637 399.456C844.454 283.627 770.678 213.781 711.922 174.231C653.198 134.704 613.648 128.102 590.158 130.424C567.825 132.631 551.047 143.75 538.209 160.496Z" fill="#351D09"/>
<circle cx="386.612" cy="428.772" r="52.9711" fill="#8B4A00"/>
<path d="M374.428 431.303H366.595C365.42 431.303 364.637 432.086 364.637 433.261V448.928C364.637 450.103 365.42 450.886 366.595 450.886H374.428C375.603 450.886 376.387 450.103 376.387 448.928V433.261C376.387 432.086 375.603 431.303 374.428 431.303ZM405.762 423.469H397.928C396.753 423.469 395.97 424.253 395.97 425.428V448.928C395.97 450.103 396.753 450.886 397.928 450.886H405.762C406.937 450.886 407.72 450.103 407.72 448.928V425.428C407.72 424.253 406.937 423.469 405.762 423.469ZM390.095 407.803H382.262C381.087 407.803 380.303 408.586 380.303 409.761V448.928C380.303 450.103 381.087 450.886 382.262 450.886H390.095C391.27 450.886 392.053 450.103 392.053 448.928V409.761C392.053 408.586 391.27 407.803 390.095 407.803Z" fill="#FABE7A"/>
<circle cx="963.61" cy="331.772" r="52.9711" fill="#8B4A00"/>
<path d="M980.306 334.024C980.306 348.244 968.453 351.8 962.529 351.8C957.339 351.8 946.973 348.244 946.973 334.024C946.973 327.834 950.516 323.91 953.493 321.934C954.853 321.03 956.546 321.607 956.633 323.237C956.826 326.807 959.576 329.674 961.709 326.804C963.656 324.177 964.619 320.61 964.619 318.467C964.619 315.31 967.813 313.307 970.309 315.24C975.169 319.007 980.306 325.32 980.306 334.024Z" fill="#FABE7A"/>
<circle cx="21" cy="21" r="21" transform="matrix(-1 0 0 1 144.641 354.801)" fill="#8B4A00"/>
<circle cx="21" cy="21" r="21" transform="matrix(-1 0 0 1 253.641 438.801)" fill="#8B4A00"/>
<circle cx="21" cy="21" r="21" transform="matrix(-1 0 0 1 467.641 249.801)" fill="#8B4A00"/>
<circle cx="21" cy="21" r="21" transform="matrix(-1 0 0 1 509.641 101.801)" fill="#8B4A00"/>
<circle cx="21" cy="21" r="21" transform="matrix(-1 0 0 1 650.639 48.8008)" fill="#8B4A00"/>
<circle cx="21" cy="21" r="21" transform="matrix(-1 0 0 1 782.639 106.801)" fill="#8B4A00"/>
<circle cx="21" cy="21" r="21" transform="matrix(-1 0 0 1 880.639 196.801)" fill="#8B4A00"/>
<circle cx="21" cy="21" r="21" transform="matrix(-1 0 0 1 1088.64 393.801)" fill="#8B4A00"/>
<circle cx="21" cy="21" r="21" transform="matrix(-1 0 0 1 1138.64 268.801)" fill="#8B4A00"/>
<circle cx="21" cy="21" r="21" transform="matrix(-1 0 0 1 1174.64 137.801)" fill="#8B4A00"/>
<circle cx="21" cy="21" r="21" transform="matrix(-1 0 0 1 1282.64 63.8008)" fill="#8B4A00"/>
<circle cx="1401.61" cy="116.772" r="52.9711" fill="#8B4A00"/>
<path d="M1360.17 116.845C1359.99 116.833 1359.81 116.818 1359.64 116.801C1359.81 116.814 1359.99 116.829 1360.17 116.845C1371.65 117.623 1401.64 108.528 1401.64 74.8008C1401.64 108.528 1431.63 117.623 1443.11 116.845C1443.29 116.829 1443.46 116.814 1443.64 116.801C1443.47 116.818 1443.29 116.833 1443.11 116.845C1429.03 118.112 1402.47 127.617 1401.64 156.024C1401.67 156.93 1401.67 157.856 1401.64 158.801C1401.61 157.856 1401.61 156.93 1401.64 156.024C1400.81 127.617 1374.25 118.112 1360.17 116.845Z" fill="#FABE7A"/>
<circle cx="661.973" cy="302.971" r="52.9711" fill="#66D7D1"/>
<path d="M670.523 306.217V301.539H676.352C677.093 301.539 677.771 301.386 678.384 301.079C678.998 300.772 679.483 300.325 679.841 299.737C680.199 299.149 680.378 298.433 680.378 297.589C680.378 296.771 680.199 296.068 679.841 295.48C679.483 294.892 678.998 294.445 678.384 294.138C677.771 293.832 677.093 293.678 676.352 293.678H670.523V289H677.234C678.947 289 680.493 289.345 681.874 290.035C683.254 290.726 684.341 291.723 685.133 293.026C685.951 294.304 686.36 295.826 686.36 297.589C686.36 299.353 685.951 300.887 685.133 302.191C684.341 303.469 683.254 304.466 681.874 305.182C680.493 305.872 678.947 306.217 677.234 306.217H670.523ZM665.922 316.072V289H671.942V316.072H665.922Z" fill="#002952"/>
<path d="M656.213 316.072L648.659 303.993H647.93L637.5 289H644.671L652.11 300.35H652.839L663.269 316.072H656.213ZM637.002 316.072L647.01 301.577L651.65 304.185L643.866 316.072H637.002ZM653.069 303.303L648.429 300.695L655.945 289H662.809L653.069 303.303Z" fill="#002952"/>
<circle cx="264.971" cy="270.971" r="52.9711" fill="#CEFF1A"/>
<g clip-path="url(#clip0_3936_42110)">
<path d="M263.251 247.666C253.407 247.675 248.316 247.853 245.084 251.082C241.855 254.316 241.677 259.405 241.668 269.249H253.134C252.296 268.202 251.693 266.986 251.368 265.684C250.115 260.663 254.665 256.113 259.686 257.366C261.021 257.699 262.229 258.313 263.251 259.132V247.666ZM241.668 272.749C241.677 282.591 241.855 287.683 245.084 290.914C248.318 294.146 253.407 294.321 263.251 294.333V275.953C262.331 277.795 260.916 279.344 259.164 280.427C257.412 281.51 255.394 282.083 253.335 282.083C252.871 282.083 252.425 281.898 252.097 281.57C251.769 281.242 251.585 280.797 251.585 280.333C251.585 279.869 251.769 279.423 252.097 279.095C252.425 278.767 252.871 278.583 253.335 278.583C255.042 278.583 256.699 278.007 258.039 276.949C259.378 275.89 260.321 274.41 260.715 272.749H241.668ZM266.751 294.333C276.593 294.321 281.685 294.146 284.916 290.914C288.148 287.685 288.323 282.591 288.335 272.749H269.288C269.682 274.41 270.625 275.89 271.964 276.949C273.303 278.007 274.961 278.583 276.668 278.583C277.132 278.583 277.577 278.767 277.905 279.095C278.234 279.423 278.418 279.869 278.418 280.333C278.418 280.797 278.234 281.242 277.905 281.57C277.577 281.898 277.132 282.083 276.668 282.083C274.609 282.083 272.59 281.51 270.839 280.427C269.087 279.344 267.672 277.795 266.751 275.953V294.333ZM288.335 269.249C288.323 259.405 288.148 254.314 284.916 251.082C281.687 247.853 276.593 247.675 266.751 247.666V259.132C267.798 258.294 269.014 257.692 270.314 257.366C275.338 256.11 279.89 260.66 278.633 265.684C278.308 266.985 277.706 268.201 276.869 269.249H288.335Z" fill="#0D3512"/>
<path d="M258.835 260.764C260.095 261.08 261.214 261.807 262.013 262.831C262.813 263.855 263.248 265.116 263.25 266.415V269.25H260.415C259.116 269.249 257.854 268.814 256.831 268.014C255.807 267.214 255.079 266.096 254.763 264.836C254.624 264.273 254.631 263.684 254.787 263.126C254.942 262.567 255.238 262.059 255.648 261.649C256.058 261.239 256.567 260.942 257.125 260.787C257.684 260.632 258.273 260.624 258.835 260.764ZM266.75 266.415V269.25H269.585C272.256 269.25 274.587 267.43 275.236 264.836C275.376 264.273 275.368 263.684 275.213 263.125C275.058 262.566 274.761 262.057 274.351 261.648C273.941 261.238 273.431 260.941 272.873 260.786C272.314 260.631 271.725 260.624 271.162 260.764C269.902 261.08 268.784 261.808 267.985 262.832C267.186 263.855 266.751 265.117 266.75 266.415Z" fill="#0D3512"/>
</g>
<circle cx="64.6117" cy="243.772" r="52.9711" fill="#8B4A00"/>
<path fill-rule="evenodd" clip-rule="evenodd" d="M56.2012 232.58V230.301C56.2012 228.063 57.0901 225.917 58.6725 224.335C60.2548 222.752 62.4009 221.863 64.6387 221.863C66.8765 221.863 69.0226 222.752 70.6049 224.335C72.1872 225.917 73.0762 228.063 73.0762 230.301V232.58C75.9944 232.663 77.7719 232.963 79.1332 234.081C81.0007 235.611 81.5182 238.207 82.5599 243.403L83.9099 250.153C85.4039 257.623 86.1509 261.358 84.1259 263.83C82.1009 266.303 78.2894 266.301 70.6687 266.301H58.6087C50.9902 266.301 47.1787 266.301 45.1537 263.83C43.1287 261.36 43.8757 257.625 45.3697 250.153L46.7197 243.403C47.7592 238.207 48.2789 235.611 50.1442 234.081C51.5077 232.965 53.2852 232.663 56.2034 232.58M59.5762 230.301C59.5762 228.958 60.1096 227.67 61.059 226.721C62.0084 225.772 63.296 225.238 64.6387 225.238C65.9813 225.238 67.269 225.772 68.2184 226.721C69.1678 227.67 69.7012 228.958 69.7012 230.301V232.551H59.5762V230.301ZM71.3887 241.551C71.9854 241.551 72.5577 241.314 72.9797 240.892C73.4016 240.47 73.6387 239.898 73.6387 239.301C73.6387 238.704 73.4016 238.132 72.9797 237.71C72.5577 237.288 71.9854 237.051 71.3887 237.051C70.792 237.051 70.2197 237.288 69.7977 237.71C69.3757 238.132 69.1387 238.704 69.1387 239.301C69.1387 239.898 69.3757 240.47 69.7977 240.892C70.2197 241.314 70.792 241.551 71.3887 241.551ZM60.1387 239.301C60.1387 239.898 59.9016 240.47 59.4797 240.892C59.0577 241.314 58.4854 241.551 57.8887 241.551C57.2919 241.551 56.7197 241.314 56.2977 240.892C55.8757 240.47 55.6387 239.898 55.6387 239.301C55.6387 238.704 55.8757 238.132 56.2977 237.71C56.7197 237.288 57.2919 237.051 57.8887 237.051C58.4854 237.051 59.0577 237.288 59.4797 237.71C59.9016 238.132 60.1387 238.704 60.1387 239.301Z" fill="#FABE7A"/>
<defs>
<clipPath id="clip0_3936_42110">
<rect width="50" height="50" fill="white" transform="translate(240 246)"/>
</clipPath>
</defs>
</svg>
