<svg width="1461" height="666" viewBox="0 0 1461 666" fill="none" xmlns="http://www.w3.org/2000/svg">
<path fill-rule="evenodd" clip-rule="evenodd" d="M192.96 130.562C154.836 132.366 113.854 138.343 78.4224 145.725C43.2785 153.046 8.85335 130.492 1.53169 95.3481C-5.78996 60.2041 16.7645 25.779 51.9084 18.4573C92.4772 10.0055 140.407 2.90345 186.815 0.707438C231.637 -1.41353 281.772 0.645014 322.954 15.0708C344.01 22.4465 367.216 34.5939 385.23 55.3772C404.547 77.663 414.111 105.602 412.973 135.855C410.955 189.454 375.765 244.177 325.814 299.257C232.997 401.604 225.495 459.965 229.762 484.281C233.63 506.322 251.653 522.104 274.024 528.886C300.745 536.987 318.437 536.207 330.272 533.104C341.956 530.039 353.079 523.367 364.57 511.044C390.113 483.649 410.147 436.878 430.5 375.184C434.701 362.451 438.978 348.813 443.39 334.744C458.025 288.076 474.145 236.671 493.886 197.887C507.202 171.723 525.932 143.028 554.034 123.206C585.215 101.212 622.61 93.9053 662.253 103.366C734.577 120.625 757.661 183.366 764.968 229.389C771.136 268.235 769.594 314.882 768.292 354.271C768.083 360.595 767.88 366.732 767.717 372.619C766.372 420.95 767.311 456.337 774.87 480.117C778.214 490.64 781.705 494.822 783.5 496.452C784.683 497.527 788.058 500.339 798.382 501.492C807.249 502.483 809.972 500.626 811.268 499.742L811.301 499.719C814.123 497.796 819.859 492.338 826.948 478.149C842.195 447.631 851.949 402.516 864.751 343.301L864.821 342.98C876.501 288.954 890.847 222.979 918.339 170.072C947.59 113.781 997.141 62.6666 1079.25 57.7085C1117.66 55.3886 1153.36 61.1134 1184.61 77.8181C1216.19 94.6992 1237.67 119.819 1252.36 146.747C1277.71 193.233 1286.42 253.601 1293.42 302.056C1293.83 304.883 1294.23 307.669 1294.63 310.41C1302.76 366.266 1310.47 413.767 1328.7 452.584C1345.17 487.638 1369.72 514.396 1415.65 529.239C1449.81 540.277 1468.55 576.917 1457.52 611.076C1446.48 645.236 1409.84 663.979 1375.68 652.941C1290.86 625.534 1240.62 570.815 1211.04 507.865C1183.47 449.172 1173.8 382.769 1166.18 330.472L1165.98 329.153C1157.44 270.517 1151.37 233.088 1138.23 208.988C1132.93 199.268 1127.99 194.958 1123.33 192.467C1118.34 189.8 1107.97 186.211 1087.08 187.472C1065.69 188.764 1049.93 198.775 1033.69 230.015C1015.7 264.639 1004.39 312.602 991.885 370.451C991.171 373.753 990.451 377.103 989.722 380.493C978.859 431.014 966.047 490.605 943.242 536.25C930.526 561.702 912.235 588.251 884.512 607.145C855.25 627.087 820.88 634.814 783.949 630.688C750.198 626.918 720.158 614.54 696.093 592.681C672.638 571.376 659.045 544.878 650.977 519.495C635.71 471.462 636.512 414.134 637.767 369.004C637.966 361.841 638.179 354.922 638.385 348.236C639.642 307.409 640.63 275.304 636.576 249.775C634.927 239.39 632.861 233.524 631.479 230.561C631.185 229.932 630.598 229.492 629.91 229.401C629.69 229.372 629.499 229.351 629.335 229.337C629.204 229.326 629.074 229.362 628.967 229.438C626.066 231.484 619.121 238.429 609.742 256.855C595.379 285.076 584.094 320.964 570.436 364.395C565.363 380.529 559.963 397.703 553.956 415.912C533.996 476.412 506.874 549.05 459.652 599.697C434.759 626.395 403.097 648.401 363.248 658.852C323.55 669.262 280.961 666.832 236.307 653.294C185.011 637.743 116.884 593.176 101.719 506.75C86.9523 422.6 127.534 324.378 229.517 211.925C263.587 174.356 276.26 151.069 280.754 139.436C281.016 138.756 280.664 138.002 279.977 137.761C262.684 131.704 232.669 128.683 192.96 130.562ZM628.546 229.32C628.545 229.318 628.578 229.314 628.648 229.312C628.582 229.32 628.547 229.321 628.546 229.32Z" fill="#280038"/>
<circle opacity="0.5" cx="63.1235" cy="83.9711" r="52.9711" fill="#470063"/>
<circle cx="423.123" cy="544.971" r="52.9711" fill="#470063"/>
<circle cx="707.123" cy="279.971" r="52.9711" fill="#470063"/>
<circle cx="979.123" cy="198.971" r="52.9711" fill="#470063"/>
<circle cx="1242.12" cy="385.971" r="52.9711" fill="#470063"/>
<circle cx="21" cy="21" r="21" transform="matrix(-1 0 0 1 270.152 272)" fill="#470063"/>
<circle cx="21" cy="21" r="21" transform="matrix(-1 0 0 1 191.152 425)" fill="#470063"/>
<circle cx="21" cy="21" r="21" transform="matrix(-1 0 0 1 273.152 564)" fill="#470063"/>
<circle cx="21" cy="21" r="21" transform="matrix(-1 0 0 1 512.152 383)" fill="#470063"/>
<circle cx="21" cy="21" r="21" transform="matrix(-1 0 0 1 554.152 247)" fill="#470063"/>
<circle cx="21" cy="21" r="21" transform="matrix(-1 0 0 1 653.152 146)" fill="#470063"/>
<circle cx="21" cy="21" r="21" transform="matrix(-1 0 0 1 728.152 406)" fill="#470063"/>
<circle cx="21" cy="21" r="21" transform="matrix(-1 0 0 1 952.152 333)" fill="#470063"/>
<circle cx="21" cy="21" r="21" transform="matrix(-1 0 0 1 1148.15 104)" fill="#470063"/>
<circle cx="21" cy="21" r="21" transform="matrix(-1 0 0 1 1239.15 216)" fill="#470063"/>
<circle cx="21" cy="21" r="21" transform="matrix(-1 0 0 1 1314.15 490)" fill="#470063"/>
<circle cx="21" cy="21" r="21" transform="matrix(-1 0 0 1 785.152 532)" fill="#470063"/>
<circle cx="21" cy="21" r="21" transform="matrix(-1 0 0 1 915.152 474)" fill="#470063"/>
<circle cx="21" cy="21" r="21" transform="matrix(-1 0 0 1 258.152 47)" fill="#470063"/>
<circle cx="21" cy="21" r="21" transform="matrix(-1 0 0 1 360.152 141)" fill="#470063"/>
<circle cx="1398.97" cy="593.971" r="52.9711" fill="#470063"/>
<path d="M1357.53 594.044C1357.35 594.032 1357.17 594.017 1357 594C1357.18 594.014 1357.35 594.028 1357.53 594.044C1369.01 594.822 1399 585.727 1399 552C1399 585.727 1428.99 594.822 1440.47 594.044C1440.65 594.028 1440.82 594.014 1441 594C1440.83 594.017 1440.65 594.032 1440.47 594.044C1426.39 595.311 1399.83 604.816 1399 633.223C1399.03 634.13 1399.03 635.055 1399 636C1398.97 635.055 1398.97 634.13 1399 633.223C1398.17 604.816 1371.61 595.311 1357.53 594.044Z" fill="#EDCFF2"/>
<path d="M70.4319 76.75C70.4319 78.3542 71.7339 79.6562 73.3381 79.6562H76.0119L68.2115 87.4566C68.1215 87.5468 68.0146 87.6184 67.8969 87.6673C67.7792 87.7161 67.653 87.7412 67.5256 87.7412C67.3982 87.7412 67.272 87.7161 67.1543 87.6673C67.0366 87.6184 66.9297 87.5468 66.8397 87.4566L60.694 81.3109C59.4224 80.0402 57.6983 79.3264 55.9006 79.3264C54.1029 79.3264 52.3788 80.0402 51.1072 81.3109L42.2219 90.1963C41.9363 90.4623 41.7073 90.7832 41.5485 91.1397C41.3896 91.4962 41.3042 91.881 41.2973 92.2712C41.2904 92.6615 41.3622 93.0491 41.5084 93.4109C41.6546 93.7728 41.8721 94.1015 42.1481 94.3775C42.4241 94.6535 42.7528 94.8711 43.1147 95.0172C43.4766 95.1634 43.8642 95.2352 44.2544 95.2283C44.6446 95.2214 45.0295 95.136 45.386 94.9772C45.7425 94.8183 46.0633 94.5893 46.3294 94.3037L55.2147 85.4184C55.3047 85.3282 55.4116 85.2566 55.5293 85.2077C55.647 85.1589 55.7732 85.1338 55.9006 85.1338C56.028 85.1338 56.1542 85.1589 56.2719 85.2077C56.3896 85.2566 56.4965 85.3282 56.5865 85.4184L62.7322 91.5641C64.0038 92.8348 65.7279 93.5486 67.5256 93.5486C69.3233 93.5486 71.0474 92.8348 72.319 91.5641L80.1194 83.7676V86.4375C80.1194 87.2083 80.4256 87.9475 80.9706 88.4925C81.5156 89.0376 82.2548 89.3438 83.0256 89.3438C83.7964 89.3438 84.5356 89.0376 85.0807 88.4925C85.6257 87.9475 85.9319 87.2083 85.9319 86.4375V76.75C85.9319 75.9792 85.6257 75.24 85.0807 74.695C84.5356 74.1499 83.7964 73.8438 83.0256 73.8438H73.3381C72.5673 73.8438 71.8281 74.1499 71.2831 74.695C70.7381 75.24 70.4319 75.9792 70.4319 76.75Z" fill="#EDCFF2"/>
<path fill-rule="evenodd" clip-rule="evenodd" d="M426.025 523.349C426.585 523.994 427.535 524.113 428.23 523.621C429.587 522.654 431.351 524.113 430.656 525.605L426.551 530.303H419.987L415.849 525.554C415.154 524.045 416.918 522.586 418.274 523.553L418.393 523.638C419.089 524.13 420.038 523.994 420.581 523.349L422.057 521.586C422.209 521.402 422.399 521.255 422.615 521.154C422.83 521.052 423.065 521 423.303 521C423.541 521 423.776 521.052 423.992 521.154C424.207 521.255 424.398 521.402 424.55 521.586L426.025 523.349ZM403.23 553.607C403.23 542.515 412.22 533.526 423.312 533.526C434.404 533.526 443.393 542.515 443.376 553.607C443.376 561.799 436.727 568.447 428.536 568.447H418.071C409.879 568.447 403.23 561.799 403.23 553.607Z" fill="#EDCFF2"/>
<path fill-rule="evenodd" clip-rule="evenodd" d="M420.394 530.27H426.229C427.263 530.27 428.111 531.118 428.111 532.152C428.111 533.187 427.263 534.035 426.229 534.035H420.394C419.36 534.035 418.512 533.187 418.512 532.152C418.512 531.118 419.36 530.27 420.394 530.27ZM423.312 550.419H423.43C425.974 550.486 428.01 552.556 428.01 555.1C428.01 557.271 426.534 559.085 424.533 559.628V561.528C424.533 562.206 423.99 562.749 423.312 562.749C422.633 562.749 422.09 562.206 422.09 561.528V559.628C421.094 559.36 420.214 558.771 419.585 557.953C418.957 557.134 418.615 556.132 418.613 555.1C418.613 554.421 419.156 553.879 419.835 553.879C420.513 553.879 421.056 554.421 421.056 555.1C421.056 556.355 422.056 557.355 423.295 557.355C424.533 557.355 425.55 556.338 425.55 555.1C425.55 553.862 424.533 552.844 423.295 552.844H423.176C421.956 552.811 420.797 552.303 419.945 551.429C419.093 550.555 418.615 549.383 418.613 548.163C418.613 545.992 420.089 544.177 422.09 543.634V541.735C422.09 541.056 422.633 540.514 423.312 540.514C423.99 540.514 424.533 541.056 424.533 541.735V543.634C426.534 544.177 428.01 545.992 428.01 548.163C428.01 548.841 427.467 549.384 426.788 549.384C426.11 549.384 425.567 548.841 425.567 548.163C425.567 546.925 424.55 545.907 423.312 545.907C422.073 545.907 421.056 546.925 421.056 548.163C421.056 549.401 422.073 550.419 423.312 550.419Z" fill="#470063"/>
<path d="M707.652 258.416C719.848 258.416 729.735 268.303 729.735 280.499C729.735 292.696 719.848 302.583 707.652 302.583C695.455 302.583 685.568 292.696 685.568 280.499C685.568 268.303 695.455 258.416 707.652 258.416ZM712.068 283.591L708.615 286.354C708.493 286.451 708.394 286.572 708.323 286.71C708.252 286.848 708.211 287 708.202 287.155C708.193 287.31 708.218 287.465 708.273 287.61C708.329 287.755 708.414 287.887 708.524 287.997L711.26 290.733C711.79 291.263 712.176 291.92 712.382 292.641L712.768 293.994C712.929 294.562 713.213 295.088 713.602 295.532C713.99 295.976 714.473 296.328 715.014 296.563C717.127 295.593 719.028 294.216 720.608 292.51L720.091 288.365C720.001 287.644 719.734 286.957 719.314 286.363C718.894 285.77 718.334 285.29 717.684 284.965L714.438 283.339C714.06 283.15 713.636 283.073 713.216 283.118C712.796 283.163 712.398 283.327 712.068 283.591ZM707.652 262.833C704.949 262.831 702.282 263.45 699.856 264.642C697.431 265.835 695.311 267.568 693.662 269.709L693.298 270.197V273.919C693.297 275.267 693.708 276.583 694.476 277.691C695.243 278.8 696.331 279.648 697.593 280.122L697.986 280.254L700.835 281.127C703.867 282.054 706.819 279.587 706.525 276.498L706.483 276.178L706.097 273.861C706.012 273.348 706.11 272.821 706.375 272.373C706.64 271.926 707.055 271.586 707.546 271.414L707.784 271.348L709.136 271.039C709.903 270.864 710.626 270.536 711.265 270.077C711.903 269.617 712.443 269.034 712.852 268.363C713.262 267.691 713.532 266.944 713.649 266.166C713.765 265.388 713.724 264.595 713.528 263.833C711.64 263.169 709.653 262.831 707.652 262.833Z" fill="#EDCFF2"/>
<path d="M985.754 196.039C984.889 199.449 979.501 197.717 977.826 197.249L979.361 191.254C981.092 191.749 986.647 192.464 985.754 196.039ZM977.072 200.329L975.397 206.957C977.463 207.479 983.856 209.487 984.805 205.747C985.81 201.842 979.138 200.824 977.072 200.329ZM1006.58 206.654C1002.84 221.394 987.708 230.359 972.745 226.674C957.781 222.989 948.689 208.084 952.421 193.344C953.308 189.841 954.887 186.544 957.067 183.642C959.248 180.74 961.987 178.289 965.129 176.43C968.271 174.571 971.754 173.34 975.379 172.807C979.004 172.274 982.7 172.45 986.256 173.324C1001.19 177.009 1010.29 191.914 1006.58 206.654ZM985.67 189.137L986.926 184.187L983.856 183.499L982.627 188.257C981.818 188.064 981.008 187.872 980.171 187.707L981.399 182.839L978.356 182.124L977.1 187.047C976.43 186.882 975.76 186.744 975.146 186.579L970.93 185.534L970.093 188.752C970.093 188.752 972.382 189.274 972.326 189.302C973.582 189.604 973.806 190.374 973.75 191.062L970.316 204.619C970.176 205.004 969.73 205.499 968.92 205.362C968.948 205.389 966.687 204.812 966.687 204.812L965.179 208.249L969.144 209.239C969.897 209.432 970.623 209.624 971.349 209.789L970.065 214.794L973.136 215.564L974.392 210.587C975.229 210.807 976.039 210.999 976.821 211.219L975.564 216.142L978.635 216.912L979.919 211.907C985.084 212.869 989.048 212.484 990.667 207.837C992.063 204.124 990.667 201.924 987.876 200.522C989.886 199.999 991.393 198.762 991.812 196.067C992.37 192.409 989.523 190.457 985.67 189.137Z" fill="#EDCFF2"/>
<g clip-path="url(#clip0_3936_43217)">
<path fill-rule="evenodd" clip-rule="evenodd" d="M1240.76 372.586C1239.96 372.585 1239.19 372.903 1238.62 373.47C1238.05 374.037 1237.74 374.806 1237.73 375.609L1237.73 376.366C1237.73 377.369 1237.33 378.331 1236.62 379.039C1235.91 379.748 1234.95 380.145 1233.95 380.144C1232.94 380.143 1231.98 379.744 1231.27 379.034C1230.56 378.324 1230.17 377.361 1230.17 376.358L1230.17 375.601C1230.17 374.21 1230.45 372.833 1230.98 371.549C1231.51 370.264 1232.29 369.098 1233.28 368.115C1234.26 367.133 1235.43 366.354 1236.72 365.823C1238 365.292 1239.38 365.019 1240.77 365.021C1242.16 365.022 1243.54 365.297 1244.82 365.831C1246.11 366.365 1247.27 367.146 1248.26 368.13C1249.24 369.115 1250.02 370.283 1250.55 371.569C1251.08 372.855 1251.35 374.232 1251.35 375.623L1251.32 403.615C1251.32 404.618 1250.92 405.58 1250.21 406.289C1249.5 406.997 1248.54 407.395 1247.54 407.394C1246.53 407.393 1245.57 406.993 1244.86 406.283C1244.15 405.573 1243.76 404.61 1243.76 403.607L1243.79 375.615C1243.79 374.813 1243.47 374.043 1242.9 373.475C1242.34 372.906 1241.57 372.587 1240.76 372.586Z" fill="#EDCFF2"/>
</g>
<defs>
<clipPath id="clip0_3936_43217">
<rect width="42.3662" height="42.3662" fill="white" transform="translate(1221.2 365) rotate(0.0586919)"/>
</clipPath>
</defs>
</svg>
